<svg id="Layer_1" data-name="Layer 1" xmlns="http://www.w3.org/2000/svg" xmlns:xlink="http://www.w3.org/1999/xlink" viewBox="0 0 663.83 657.77"><defs><style>.cls-1{fill:none;stroke-width:5px;}.cls-1,.cls-3,.cls-4,.cls-5,.cls-6,.cls-7{stroke:#000;stroke-miterlimit:10;}.cls-2{fill:url(#linear-gradient);}.cls-3{fill:#be3b96;}.cls-3,.cls-5{stroke-width:3px;}.cls-4{fill:#ec1a42;stroke-width:4px;}.cls-5{fill:#d8c725;}.cls-6{fill:#26bfce;stroke-width:7px;}.cls-7{fill:#8b8a34;stroke-width:6px;}.cls-8{fill:#f38e42;}</style><linearGradient id="linear-gradient" x1="-9.01" y1="1055.52" x2="538.52" y2="1055.52" gradientTransform="matrix(0, -1.04, 1, 0, -71.4, 764.63)" gradientUnits="userSpaceOnUse"><stop offset="0" stop-color="#fff"/><stop offset="0" stop-color="#fff9f3"/><stop offset="0.11" stop-color="#ffe6c8"/><stop offset="0.28" stop-color="#ffca8c"/><stop offset="0.45" stop-color="#ffb45a"/><stop offset="0.61" stop-color="#ffa233"/><stop offset="0.75" stop-color="#ff9517"/><stop offset="0.87" stop-color="#ff8e06"/><stop offset="0.97" stop-color="#ff8b00"/></linearGradient></defs><path class="cls-1" d="M1304.3,625.42" transform="translate(-652.17 -137.87)"/><path class="cls-1" d="M1298,578.51" transform="translate(-652.17 -137.87)"/><ellipse class="cls-2" cx="984.08" cy="489.5" rx="332.02" ry="284.36" transform="translate(-675.28 -88.36) rotate(-2.85)"/><path class="cls-3" d="M907.87,286A180.61,180.61,0,0,0,775,345.12c-3.79,4.06-31.78,35.15-25.51,79.86,5.55,39.64,34,61.15,39.23,65l213.74-17.07s86.6-102.41-15.67-148.65l-79.4-10.71L886.14,310Z" transform="translate(-652.17 -137.87)"/><ellipse class="cls-4" cx="950.9" cy="311.55" rx="39.38" ry="32.5" transform="translate(-666.48 -90.2) rotate(-2.85)"/><path d="M961.24,278.85a7.91,7.91,0,0,1,.44-.68c-.57.7-.65.82-.25.35.16-.16.32-.32.49-.47.47-.41.32-.3-.47.34a4.49,4.49,0,0,0,1.06-.61c-1,.4-1.18.49-.61.27l.57-.19c1.65-.5,3.37-.73,5-1.27,4.4-1.45,7.73-4.58,11.88-6.47l1.87-.85c.41-.18,1.83-.71,0,0,.4-.15.79-.32,1.19-.48a37.29,37.29,0,0,1,5.06-1.63c.43-.1.86-.17,1.29-.26,1.07-.23-1.64.14,0,0,.82-.07,1.62,0,2.43,0-1.77.06-.85-.14-.17,0l.54.16c.57.22.36.12-.66-.28a7.14,7.14,0,0,0,1,.57c-.83-.67-1-.8-.56-.4a4.07,4.07,0,0,1,.41.42,6.06,6.06,0,0,0,8.49,0,6.14,6.14,0,0,0,0-8.49c-5.38-5.8-14.09-4.36-20.68-1.82a52.74,52.74,0,0,0-9.06,4.18c-1.59,1-3.08,2.12-4.71,3-.41.24-.84.43-1.26.66-.57.31.48-.21.51-.21a2.21,2.21,0,0,0-.51.18c-.8.27-1.63.48-2.45.67a25.4,25.4,0,0,0-5.56,1.79,14.12,14.12,0,0,0-5.58,5.37A6.06,6.06,0,0,0,953,281a6.13,6.13,0,0,0,8.21-2.15Z" transform="translate(-652.17 -137.87)"/><polygon class="cls-5" points="134.31 351.93 258.05 571.28 350.65 331.98 134.31 351.93"/><path class="cls-6" d="M866.88,658.59,1082,430.6a117.34,117.34,0,0,1,50.45-18.1c39.52-4.29,69.06,13.91,88.41,25.85,18.91,11.65,36.43,22.46,44.41,44.54,5.88,16.28,4,31.42,2,40.23L1051.47,755.73Z" transform="translate(-652.17 -137.87)"/><path class="cls-1" d="M1095.44,451.48,923.31,640.66l51.13,32.28,167.93-181.63s48-49.15-13.63-52.49Z" transform="translate(-652.17 -137.87)"/><path class="cls-1" d="M1170.6,501.92,998.46,691.1l51.13,32.28,167.93-181.63c10.16-5.14,16.69-15,16.43-25.21-.34-13.77-13-26.48-29.77-26.94Z" transform="translate(-652.17 -137.87)"/><polygon class="cls-7" points="288.84 557.99 214.66 619.74 271.95 653.86 330.13 581 288.84 557.99"/><path class="cls-8" d="M684.72,274.7c2.85,7.12,13.18,26.65,19.8,31.34,1.13.81,3,2.18,4.55.63.1-.12.2-.25.31-.37,2.41-3,5.74-11.83,8.76-18.18,0,.16.06.36.29.23-.23.45-.82,2.08-.49,2.14a.54.54,0,0,0,.24.61l.16,0c0,.11-.16.4-.1.55a7.33,7.33,0,0,0-.23,2.21,12.7,12.7,0,0,0-1.4,3.55c0,.1,0,.21,0,.32a8.66,8.66,0,0,1-.27,1.63c-1.18,4.38-1.48,4.94-4.43,8.51a9.38,9.38,0,0,1-12.64,1.6c-7.06-4.81-19.34-26.34-21-35.22-.05-.48-.1-.95-.14-1.42l.69-1.95c.54-.63,2.22-1.78,2.88-1.31l.84.27c.54.27,1.81,2.73,2.36,3.56.66,1.25.91,2.2,1.77,3.79C686.12,276.68,685.26,274.87,684.72,274.7Z" transform="translate(-652.17 -137.87)"/><path class="cls-8" d="M732.41,260.56a1,1,0,0,1,.29.63l.18-.07a8.66,8.66,0,0,0,.91,2c.05,0,0,.21.11.1.79,5.51,1.19,9.62.57,14.27-.55,1.15-.65,2.06-1.69,3.08-2.16,1.32-5.75,2.48-8.5-.22-3.54-3.37-7-11.33-7.59-12.78,0-.13,0-.26.07-.39.37-.47,1.48-1.56,1.91-2a1.67,1.67,0,0,1,1.35-.41,3,3,0,0,1,1.28.79c3.17,4.77,6.06,11.44,9.09,13.16.16.15.33.08.51-.09,1.9-1.68.36-10.75.14-18.85,0-.16.07-.32.1-.49A12.88,12.88,0,0,0,732.41,260.56Zm-14.95,3.51-.59.17-.13.12a2.09,2.09,0,0,1-1.28,0,3.27,3.27,0,0,1-.62-3.29,4.62,4.62,0,0,1,.84-1.13,2.92,2.92,0,0,1,1.92-.75l.8.36a.21.21,0,0,1,.17,0c.6.54-.23,2.35-.4,3.24l-.66,1.26Z" transform="translate(-652.17 -137.87)"/><path class="cls-8" d="M760.18,253.06c.54.6,4.08,4.74,5,4.15.45-.35,1.05-.27,1.52-.72h.11a.45.45,0,0,0-.1.26l.13.27-.39.29a1.47,1.47,0,0,0-.17.42l.09.11c0,.08-.06.17-.1.26l-.59.55.5-.29a.37.37,0,0,1-.13.46,4,4,0,0,1-1,.33c-.06,0,.54.13-.08.52-2.68,1.57-6.9-1.64-8.18-3-.84-.92-1.61-1.88-2.43-2.9a53.54,53.54,0,0,1-.52,9.48,4,4,0,0,1-1.73,2.9c-3.08,1.69-6.5,0-8-1.31-4.92-4.21-8.08-13.3-11.51-22.47l-1.61,1.39-.4.34c-1.89,1.61-6.93,5.93-8.39,2.53l-.1-.1c0-.11,0-.16,0-.22s.22.2.22.2c.7.05.6,0,1.1-.3a20.36,20.36,0,0,0,4.64-3.31c1.07-.94,2.29-2,3.48-3.19-.72-1.59-1.25-3.25-2-4.79-.13-.26-.39-.52-.31-.69.63-.53,3.11-2,3.67-1.43a.82.82,0,0,0,.69.19,13.69,13.69,0,0,1,2.43,2.35c1.88-1.91,3.92-3.92,5.94-5.69-.14-.81-.41-1.62-.62-2.38-.28-1.09-1-4.79-.38-5.89a4.21,4.21,0,0,1,.91-.51l.31-.33c.08,0,.17-.22.32-.33a15.86,15.86,0,0,0,2.13-.78c.37-.28,1.15-.77,1.49-.38l.37.27c.34.38,1,.6.8.77a16.12,16.12,0,0,1,2.36,3.88c2.46-1.28,4.4-1.51,4.89.3l-.07,0c-.12-.27-1.79.39-4,1.83,2.55,6.56,3.64,14.8,4.18,17.8A54.11,54.11,0,0,0,760.18,253.06ZM742.8,232.43c-1.86,1.65-3.67,3.49-5.37,5.17,1.83,3.41,3.39,8.07,5,14.46,1.82,3.71,4.29,10.13,8.25,12.11,1.15-.9,1-8.57.41-14.83A71.25,71.25,0,0,1,742.8,232.43Zm4.92-4.26-.72.54c.39,1.36,1.16,2.61,1.48,4a.12.12,0,0,1,0,.05,18.84,18.84,0,0,0,1.33,3C749.53,234.41,748.5,230.78,747.72,228.17Zm-1.06-2.77c-.07,0-.09.16-.14.38l.05.05.29-.22C746.79,225.4,746.66,225.4,746.66,225.4Z" transform="translate(-652.17 -137.87)"/><path class="cls-8" d="M783.34,219.49a1.17,1.17,0,0,0,.15.5,3.75,3.75,0,0,1,.09,1.15l.28.25.11-.15,0,.06c0,.11.09.22.14.34a1.69,1.69,0,0,0,.05,1.08c.06-.21-.09-.55,0-1l.12.18c.26.36.1,3.63.24,4.4.09-.74.11-1.44.2-2.19.1.29-.06.65,0,.87l.34,0a5.67,5.67,0,0,0-.06,1.07,11.76,11.76,0,0,0,0,2.15,1.63,1.63,0,0,1-.17.2l.27.09-.24.24c0,.13.05.25.07.38-.08.32,0,.6-.18.9a24.69,24.69,0,0,1-.22,3.51c-.44,3.07-.28,7.4-3.33,9.48a4.05,4.05,0,0,1-.79.45,6.28,6.28,0,0,1-7.83-1.78c-5.62-6.9-7.72-17.27-10.13-25.59a36.56,36.56,0,0,1-1.77-6.37c0-.05.07-.1.1-.16,1-.44,3.06-1.6,4.68-1,2.11.89,5.35,8.41,6.75,17.1,1.12,4.95,2.46,9.77,5.29,13.38a5.54,5.54,0,0,0,2.28,2.13l.27-.18a143.94,143.94,0,0,0,2.39-17.85,21.19,21.19,0,0,1,.39-4.46l.21.3A1,1,0,0,1,783.34,219.49Z" transform="translate(-652.17 -137.87)"/><path class="cls-8" d="M810.3,205.77l.31.17c.22.38.1,1,.29,1.32,0,.07.3,0,.3,0l.27.11c.4.85,0,1.93.19,2.67.42,5.16-2.65,15.77-6.74,18.16-.22.12-.4.14-.54.22-4.86,2.06-8.92,1.25-11.29-2.58-2.64-4.35-3.12-13.92-.67-18.75v-.17c0-.22,1-.8,1.27-1a23.18,23.18,0,0,1,4-1.06c1.79-.5,2.85-.49,3.74.93,3.5,5.57-5.11,10.48-5.07,10.84-.05,2.13,2.21,12.07,6.23,9.72,3.33-1.95,5.85-12.34,6.49-16,.15-1.07.45-4.26,1.08-5.07A1,1,0,0,1,810.3,205.77Zm-14.2,7.76c2.79-2.36,3.38-5.66,1-6.08C796.61,208.14,796.15,211.74,796.1,213.53Z" transform="translate(-652.17 -137.87)"/><path class="cls-8" d="M883.28,149.69l.16.18c.24-.51.32-.9.56-1.41a.75.75,0,0,1,.19.62l.31-.3.43.11c.11.35-.24,1.18,0,1.5l.32.07c0,.07,1,.2.95.5l.15.19a16.3,16.3,0,0,1-.08,2.33l.21-.28.06.21a17.87,17.87,0,0,1,0,3.27c.45,8.9.21,19.41-.18,28.36-.36,2.28-.3,8.09-4.59,11a3.2,3.2,0,0,1-.89.5,18.1,18.1,0,0,1-2.07.18c-5.39.47-8.87-7.1-10.12-10.88-2.76-8.22-3.4-17.05-6.15-25.35,0-.07-.1-.27-.1-.27-2.41,1.55-5.47,24.16-5.3,28.83a45.53,45.53,0,0,1-.9,8.27c-.42,2.93-1.44,6.49-2.92,8.08a6.58,6.58,0,0,1-2.14,1.94c-6,2.4-10.78-2.89-12.93-7.81a35.94,35.94,0,0,1-2.81-8.24c-.32-1.05-.4-2.42-.8-3.43l-.07-.13c-.56-3.32-2.47-24.14-2.57-24.56-.13-4.23-1.85-4.48-.58-5.61a10.67,10.67,0,0,1,3.71-.75c.61-.08.7.35,1.91.66a4.63,4.63,0,0,1,1,1.41c1.18,2.81,1.86,8.83,2.07,11.93.53,8.09,1.44,20.77,5.15,28.63.33.88,2.7,5,3.79,4.56,3.65-2.88,1-34.62,9.21-45.53.27-.32,1.25-1.48,1.82-1.59a9.72,9.72,0,0,1,1.41-.83c4.55-1.44,7.79,2.81,8.74,5.77,1.28,4.14,1.91,8.63,2.77,12.89.71,3.87,2.28,9.58,3.33,13.34a14.56,14.56,0,0,0,3.17,5.44c3-1.9,0-38.16,3.77-44.33l.1,0C883.3,149.33,883.29,149.51,883.28,149.69Z" transform="translate(-652.17 -137.87)"/><path class="cls-8" d="M912.71,167.47a8.43,8.43,0,0,1,1.34,2.68c.7,2.36.15,7.09-.35,9.47s-2.7,6.51-5.56,7.21-6.13-.37-6.94-3c-2.34-6.29,3.19-19.09,4.27-19.59a3.33,3.33,0,0,1,1.19-.47,5.39,5.39,0,0,1,4.13,1c-.1,1.13-.37.37-.73,1.18a35.44,35.44,0,0,1,6.37-2.41c.53-.1,1.67-.38,2.73-.57,1.52-.27,3.06-.38,3.54.2l-.78.71.11.06-.26.11.15.27c-.09,0-.08.09-.06.16s.23.25.32.24l-.16.1c-.72.05-1.43.17-2.14.29A48.6,48.6,0,0,0,912.71,167.47Zm-5.86,17.36c.33-.08.36-.3.39-.53,2.24-3.23,3.32-11.18,2.18-14.48-.08-.35-.31-.52-.57-.84a54.91,54.91,0,0,0-2.15,6.8c-.49,3.06-.62,7.08-.2,8.39C906.64,184.36,906.69,184.57,906.85,184.83Z" transform="translate(-652.17 -137.87)"/><path class="cls-8" d="M940.46,167.61c.4,2.2.17,3.68-.47,6.52-.42,2-2.43,5.84-5.16,6.45-2.78.4-5.69-.88-6.48-3.24-1.51-4.72,1.64-11.87,4.19-15.94.07-.08.16-.09.43-.13a5.63,5.63,0,0,1,4.24,1.46,5,5,0,0,0-.57,1C938.78,164.12,939.76,165.3,940.46,167.61Zm-6.19,10.65c2-3.2,3.21-8.52,2.16-11.8-.22-.26-.26-.54-.49-.87a31.87,31.87,0,0,0-2,5.58c-.78,2.81-.94,5.45-.48,6.62.13.27.17.49.3.76C933.87,178.47,934.21,178.42,934.27,178.26Z" transform="translate(-652.17 -137.87)"/><path class="cls-8" d="M992.24,162.65c0,.12,0,.24,0,.36s.36.29.36.36-.18.14-.18.14,0,.24,0,.36-.18.36-.09.43c-.27.43-1.25,2.16-1.34,2.23-.26.36-.79,1-.79,1.44l-.18.21c.09.29-.52.5-.52.94l-.35.21-.09.22v.14c-1.71,3.23-7.89,11.14-11.37,11.27a2,2,0,0,1-.68-.13c-.94-.33-2.3-.42-2.83-.9-5.26-4.68-1.19-17.83.42-22.5-2.64,4.69-9.17,20.3-13.83,20.38-2.89.07-6.83-1.52-7.12-4.1-.57-4.64,4.37-17.86,11.75-18.29a11,11,0,0,1,4.52.91c-.06-.33,9.67-16.38,10.57-16.57.94-.6.57-.38,1.7-.61a9.9,9.9,0,0,0,1.34.12l.38.28.48.07.28-.07.39.21.67,1c1.23,1.57-2.17,7.8-2.76,9.61-2,5.21-6.16,16.92-5.86,24a10.36,10.36,0,0,0,.65,3.94,4.46,4.46,0,0,0,1.25-1c3.27-3.41,8.47-11,12.1-15.26h.53v.21c.09.1.18.19.26.29s.27,0,.36-.07Zm-24.07-3.42.24-.45c-.28-.2-.55-.18-1.09-.16-4.1.51-8.57,11.83-8.26,14.63a4.07,4.07,0,0,0,.61,2C960.93,174.74,966.8,161.8,968.17,159.23Z" transform="translate(-652.17 -137.87)"/><path class="cls-8" d="M1026.41,174c.69-8.22,12.73-29.15,12.54-31.83.3-.11.7-.21.84-.48-5.14-.48-10.51.45-11.07.4-1.42-.13-2.35-.36-2.24-1.36a2.75,2.75,0,0,1,1.57-2c4.28-1.39,15.77-.65,20.72.1,2.39.3,12.14,2.09,11.58,4.73-.09.42-2.24.5-2.89.39-1.22-.2-2.67-.72-4-.93-1.13-.17-2.72-.48-4.33-.71a22.9,22.9,0,0,0-4.29-.31,2.34,2.34,0,0,1,.48,1.81c-.67,3.83-6.7,15.61-8.89,20.15-1,2.27-2.09,4.76-3.11,7.11a30.49,30.49,0,0,0-2.14,5.77c0,.14.41.19.92.25,2.14.21,9.72,1.71,9.32,4.15-.06.36-1.49.74-2.33.63-1.34-.18-2.38-.68-3.65-.83-4.72-.57-7.64-.45-12.47-.68-1.27,0-2.84.33-4,.24-1.68-.13-3.16-.74-3-2.32a2.68,2.68,0,0,1,.45-1.27c1.61-.85,9.68-.51,10.13-.66C1026.76,175.5,1026.33,174.73,1026.41,174Z" transform="translate(-652.17 -137.87)"/><path class="cls-8" d="M1060.1,178.59c-.18.85-.07,3.58,1.42,3.94,4,.75,12.89-5.28,16-7.29,2.11-1.44,5.17-3.82,7.51-4.51v.3l.24.14c0,.11-.06.23-.1.34,0,.35,0,.7,0,1l0,.07-.06.21a.8.8,0,0,1-.23.16,1.64,1.64,0,0,0,0,.23,21.63,21.63,0,0,0-4,3.54,10.63,10.63,0,0,0-1.31.8l-.31.15a1,1,0,0,1-.56.39l0,.07-.1.05-.06.2-.31.15c-.21.1-.21.1-.23.17s-.22.17-.45.34l.13.18c-.41.2-.64.37-1,.57a1.69,1.69,0,0,1-.79.63l-.23.17a.44.44,0,0,1-.41.2,1,1,0,0,1-.65.45c-3.86,2.44-8.75,5.07-13.38,4.17-4.21-.82-7.43-5.09-6.74-8.7,1-5.32,8.21-12.71,14.2-14.15a3,3,0,0,1,1.58,0,33.67,33.67,0,0,1,4.68,2.17,4.09,4.09,0,0,1,1.18,4.4c-.33,1.25-2.12,1.81-3,1.63a.66.66,0,0,1-.33-.15c-.53-.41.1-3.67-1-4.49C1070,165.82,1061.51,171.72,1060.1,178.59Z" transform="translate(-652.17 -137.87)"/><path class="cls-8" d="M1111.32,182l.06.33c-.15.4-.75.74-.88,1.08,0,.06.2.21.2.21l.09.26c-.42.85-1.53,1.33-2,1.92-3.89,3.73-14.38,8.72-19,7.47-.24-.07-.38-.19-.54-.23-4.9-2-7-5.43-5.52-9.67,1.71-4.79,9.17-11.52,14.76-13l.13-.12c.16-.18,1.28.14,1.63.24a22.71,22.71,0,0,1,3.48,2.08c1.58.92,2.27,1.67,1.71,3.23-2.23,6.15-11.89,3.41-12.17,3.68-1.78,1.38-8.22,9.65-3.63,10.9,3.78,1,13.76-4.2,17.17-6.2,1-.61,3.74-2.53,4.82-2.63A1.08,1.08,0,0,1,1111.32,182Zm-15.7-4.78c3.76.39,6.83-1.4,5.61-3.34C1100.34,174,1097.1,176.05,1095.62,177.21Z" transform="translate(-652.17 -137.87)"/><path class="cls-8" d="M1161,204.89c0,.16-.11.32-.17.48l-.07.12c-.18.32-.1.52-.24.77a24.42,24.42,0,0,1-4.32,2.4c-.14.25-.36.31-.62.42,0,.12-.07.24-.1.36-1.56.53-3.15,1.13-4.72,1.74,0,0,0,.09-.07.13-2.21.86-8.54,1.12-10.82.13-7.43-3.26-6.58-11.11-4.49-15.59,4.08-8.79,15.37-18.82,28.43-20.73,2.26-.4,6.39-.78,8.62.3,3.35,1.61,7.22,6.84,7.17,9.7a37,37,0,0,1-1.13,5.3,2.29,2.29,0,0,1-2.35.33c-3-1.54.51-9-3.11-10.76-1.6-.79-5.42,0-6.89.38-10,2.23-20.93,10.73-24.16,17.38-1.27,2.53-4.4,9.35,0,11.28,3.95,1.71,18.55-5.57,19.35-5.14v.16l.08,0A1.37,1.37,0,0,1,1161,204.89Z" transform="translate(-652.17 -137.87)"/><path class="cls-8" d="M1196,216.11a5.51,5.51,0,0,0-2.41-.55c-7.31-.47-13.68,3.18-18.65,6.69a24.82,24.82,0,0,1-4.37,3.11,2.27,2.27,0,0,1-1.66.15l-.18-.18-.25-.06c-.15-.08-.1-.3-.32-.42-1.27-2.36-2-2.81-.61-5,2.94-4.84,10.61-10.58,15.5-14.07.81-.6,1.63-1.19,2.46-1.78a2,2,0,0,1,.7.23,6,6,0,0,1,1,.74c1.27,1,1.67,2,1.34,2.46-1.37,2-6.88,5.91-9.44,8.13.92-.47,1.62-.58,2.78-1.08,3.7-1.39,10.34-3.4,14.5-.83a7.39,7.39,0,0,1,.77.74l.45.28.32.46a1.35,1.35,0,0,1-.27,1.11c-.07.39-.46.49-.44.76l-.13.17c-.09.12-.93,1-.92,1l-.09.12A16.87,16.87,0,0,0,1196,216.11Z" transform="translate(-652.17 -137.87)"/><path class="cls-8" d="M1220.56,238.84c0,.11,0,.22,0,.32-.29.33-1,.46-1.21.74,0,0,.11.26.11.26a2.44,2.44,0,0,1,0,.27c-.69.66-1.89.76-2.57,1.16-4.95,2.26-16.49,3.67-20.39,1-.21-.14-.3-.29-.43-.38-3.88-3.42-4.67-7.27-1.78-10.77,3.27-3.94,12.67-7.89,18.43-7.52l.16-.06c.22-.12,1.16.53,1.45.73a21.62,21.62,0,0,1,2.51,3c1.14,1.36,1.52,2.26.44,3.55-4.28,5-12.34-.54-12.69-.38-2.16.73-11.09,6.46-7.23,9.06,3.18,2.12,14.34.36,18.23-.44,1.11-.27,4.39-1.19,5.44-.94A1.22,1.22,0,0,1,1220.56,238.84Zm-13-9.36c3.38,1.53,6.89.83,6.45-1.36C1213.14,227.94,1209.37,228.86,1207.57,229.48Z" transform="translate(-652.17 -137.87)"/><path class="cls-8" d="M1219.88,256.29c-2.56-2.05-2.05-5.51-.49-7.53,2.68-3.82,15.77-8,20.46-4.07,1.41,1.18,3.08,3.57,3,5.23,1.5-.15,3.23-.39,5.1-.49,0-.11,0-.21.08-.32a1,1,0,0,1,.79.21c1.12,1,3.2,3.46,2.07,4.51-1.38,1.3-3.6,1.86-5.36,2.73-4.59,2.16-8.83,4.26-12.26,7.73-.2.21-1.15,1.51-1,1.68,1.78,1.51,17.49-.68,20.59-.79,0,.27-1.73.77-1.72.88.54.42-.55.39-.23.9l-1.14.82c-5.29,1-16.08,2.91-19.28.11a7,7,0,0,1-1.23-1.66c-1.44-2.49-.39-5,1.29-6.76a27.1,27.1,0,0,1,6.91-4.92.18.18,0,0,0-.07-.05C1233.76,255.07,1222.21,258.13,1219.88,256.29Zm19.73-6.07a2.28,2.28,0,0,0-.64-1.79,2.91,2.91,0,0,0-1.7-.48c-4.67-.31-12.12,2.12-14.79,5.11-.08.16-.15.32-.22.48C1227.63,252.43,1234.13,251.1,1239.61,250.22Z" transform="translate(-652.17 -137.87)"/><path class="cls-8" d="M1263.84,303.81a2.12,2.12,0,0,1-.35-.53c-1-2.17-1.28-3.17,0-4.86,2.79-4.12,13.32-6.12,16.49-8.69a26,26,0,0,0-5.71-.26c-4.5.06-8.65,1.21-12.75,2.22a20.63,20.63,0,0,1-4.41.88l-.44-.69-.83.07c0-.32-.16-.92-.16-1.24l-.28,0-.16-.18v-.32l-.39-.2a12.55,12.55,0,0,1,.17-1.95l.23-.18.16,0,.17-.14c2.42-.84,13.07-6.41,14.54-7.62L1270,280c-3.57-.55-10.34.7-14,1.77-2.3.66-4.52,1.62-6.79,2.21a5.93,5.93,0,0,0-1.29-.27l-.22-.23a.75.75,0,0,0-.24-.54,9.63,9.63,0,0,0-1.2-1l-.23-.44a3.57,3.57,0,0,1,1-2.84c5.43-5,15.32-8.11,19.74-10.27.85.87,2.13,2.83,2,3.91a4.32,4.32,0,0,1-1.36,1.33c-2.56,1.54-6,2.42-7.32,3.34,2.55-.52,8.23-.81,11,.49a11.76,11.76,0,0,1,1.33,1.34l1.27,1.39c2,2.16-2.64,5.06-3.72,5.92,2.08-.09,10.49-.49,11.78,1.05a4,4,0,0,0,1.06,1,5.2,5.2,0,0,0,.82,1.2c1.37,1.64.41,3.48-1,4.45-3.52,2.52-7.78,3.56-11.74,5.31a42.25,42.25,0,0,0-4.75,2.39c-.12.08-.13.3-.19.45l.09.22c1,1.17,14.07,1,20.92.92l-.73.49c0,.07-.09.13-.13.19s0,.22-.08.26l0-.07-.24.17c-.06,0,0,.1-.14.29-.17.62-.91,0-1.78.21-.39,0-.25.28-.21.45,0,.43-.16.51-.37.36,0,.32-.14.29-.28,0C1280,306.49,1266.44,306.82,1263.84,303.81Zm19.21,1.69a.58.58,0,0,1,.23-.06c-.22-.05-.27-.11-.42-.31A1.25,1.25,0,0,0,1283.05,305.5Z" transform="translate(-652.17 -137.87)"/></svg>